<svg width="14" height="10" viewBox="0 0 14 10" fill="none" xmlns="http://www.w3.org/2000/svg">
<path d="M12.6 0H1.40004C1.02889 0.00036368 0.673033 0.144147 0.410505 0.399837C0.147977 0.655528 0.000382369 1.00212 0 1.36366V8.63634C0.000373415 8.99785 0.147993 9.34446 0.410505 9.60016C0.673017 9.85587 1.02886 9.99963 1.40004 10H12.6C12.9711 9.99964 13.327 9.85585 13.5895 9.60016C13.852 9.34447 13.9996 8.99788 14 8.63634V1.36366C13.9996 1.00215 13.852 0.655543 13.5895 0.399837C13.327 0.144131 12.9711 0.000372433 12.6 0V0ZM11.9966 7.40582C12.1145 7.52063 12.1604 7.68793 12.1174 7.84483C12.0742 8.0017 11.9485 8.12415 11.7874 8.1662C11.6264 8.20815 11.4546 8.16329 11.3367 8.04848L8.8666 5.64269L7.32989 7.13947C7.24239 7.2247 7.12365 7.27259 6.99994 7.27259C6.87623 7.27259 6.75747 7.2247 6.66999 7.13947L5.13328 5.64269L2.66317 8.04848C2.5453 8.16329 2.37353 8.20815 2.21245 8.1662C2.05139 8.12413 1.92568 8.00169 1.8825 7.84483C1.83943 7.68795 1.88549 7.52065 2.00336 7.40582L4.47334 4.99991L2.00336 2.59399C1.88549 2.47918 1.83944 2.31188 1.8825 2.15499C1.92569 1.99811 2.05141 1.87566 2.21245 1.83361C2.37352 1.79166 2.54528 1.83652 2.66317 1.95133L6.99988 6.17533L11.3366 1.95133V1.95145C11.4545 1.83664 11.6262 1.79179 11.7873 1.83373C11.9484 1.8758 12.0741 1.99825 12.1173 2.15511C12.1603 2.31199 12.1144 2.47928 11.9964 2.59411L9.52641 5.00003L11.9966 7.40582Z" fill="white"/>
</svg>
